<?xml version="1.0" standalone="no"?>
<!DOCTYPE svg PUBLIC "-//W3C//DTD SVG 20010904//EN"
 "http://www.w3.org/TR/2001/REC-SVG-20010904/DTD/svg10.dtd">
<svg version="1.0" xmlns="http://www.w3.org/2000/svg"
 width="1024.000000pt" height="1024.000000pt" viewBox="0 0 1024.000000 1024.000000"
 preserveAspectRatio="xMidYMid meet">

<g transform="translate(0.000000,1024.000000) scale(0.100000,-0.100000)"
fill="#000000" stroke="none">
<path d="M2356 7683 c-4 -87 -5 -167 -2 -179 4 -20 0 -21 -171 -28 -96 -3
-178 -4 -183 -1 -14 9 -20 -56 -20 -227 l0 -169 -181 3 -181 3 6 -65 c3 -36 6
-722 6 -1524 l0 -1459 138 5 c75 3 154 3 175 1 l37 -5 0 -189 0 -189 144 0
c79 0 164 -3 190 -6 l46 -7 0 -178 0 -179 845 0 845 0 2 183 3 182 183 -1 182
-1 0 192 0 192 171 7 c94 3 174 4 178 2 10 -6 21 242 21 461 l0 163 375 0 375
0 0 -262 c0 -145 3 -286 6 -315 l7 -52 163 6 164 5 0 -196 0 -196 158 0 c86 0
167 -3 180 -6 22 -6 22 -8 22 -185 l0 -179 855 0 855 0 0 186 0 187 184 -5
184 -5 2 190 c0 105 2 192 4 194 1 2 80 3 174 4 l172 0 1 37 c0 20 1 704 2
1519 l2 1483 -177 0 -178 0 0 195 0 195 -32 1 c-18 1 -100 4 -183 8 l-150 6
-3 178 -2 177 -679 0 -678 0 5 -180 5 -180 -159 -2 c-87 -1 -170 -2 -183 -2
l-23 0 3 -198 4 -197 -182 4 -183 4 0 -455 0 -454 180 0 c99 0 183 -1 188 -2
4 -2 9 191 12 429 3 237 8 435 13 439 4 4 77 9 161 11 l155 4 6 -46 c4 -25 4
-65 0 -90 -3 -25 -3 -103 1 -173 l7 -127 193 0 194 0 0 228 0 227 -180 0
c-178 0 -180 0 -185 23 -3 12 -4 93 -3 179 l3 158 610 2 c336 1 631 2 657 2
l48 1 0 -198 0 -198 164 3 c90 2 167 0 170 -3 3 -3 7 -360 8 -793 l3 -788
-155 -4 c-85 -2 -161 0 -167 4 -9 6 -13 60 -15 192 l-3 185 -852 2 -853 2 0
-194 0 -194 -54 6 c-29 3 -110 2 -180 -2 l-126 -7 0 -199 0 -199 -730 0 -730
0 0 199 0 199 -56 7 c-31 4 -114 3 -185 0 l-129 -8 0 197 0 196 -852 0 -851 0
6 -192 7 -193 -180 -3 -180 -3 0 524 c0 288 3 646 7 795 l6 272 179 0 178 0 1
173 c1 94 4 183 8 197 l6 25 628 0 627 0 -2 -180 -3 -180 -180 -5 -180 -5 1
-37 c0 -21 1 -121 2 -221 l2 -184 177 -6 c135 -5 179 -4 185 6 4 6 8 103 8
214 l0 201 113 7 c61 3 146 5 187 3 l75 -3 3 -437 2 -438 195 0 195 0 0 450 0
450 -184 0 -184 0 -7 84 c-4 47 -6 134 -4 194 l4 109 -106 7 c-59 4 -148 4
-198 0 l-91 -7 -1 89 c-1 49 -1 133 1 187 l2 97 -645 0 -644 0 -7 -157z m1676
-2457 l3 -191 183 -3 182 -2 0 -473 0 -472 -185 0 -185 0 0 -192 0 -193 -830
0 -831 0 3 190 3 190 -185 0 -185 0 0 474 0 473 80 7 c44 3 126 6 183 6 l102
0 0 190 0 191 830 -2 830 -2 2 -191z m3586 187 l322 -6 0 -189 0 -189 170 4
170 5 0 -418 c0 -229 3 -444 6 -476 l6 -59 -176 0 -176 0 0 -192 0 -193 -835
0 -835 0 -2 78 c-2 42 -1 128 1 189 l3 113 -178 2 -179 3 -1 477 -2 476 174
-5 174 -6 0 196 0 197 518 0 c284 0 662 -3 840 -7z"/>
<path d="M4798 3693 l-28 -4 0 -370 0 -369 -139 0 c-76 0 -159 -3 -185 -6
l-46 -7 0 -191 c0 -105 3 -201 6 -213 6 -23 8 -23 189 -23 l182 0 6 98 c4 53
7 143 7 200 l0 102 359 0 c198 0 366 3 375 6 13 5 15 -20 18 -194 2 -110 5
-203 8 -205 3 -3 87 -7 188 -9 l182 -3 0 222 0 223 -177 0 -178 0 0 186 -1
185 -194 2 -195 2 -3 188 -2 187 -173 -1 c-94 -1 -184 -4 -199 -6z"/>
<path d="M27 103 c-25 -4 -27 -8 -27 -54 0 -48 1 -49 30 -49 30 0 30 1 30 55
0 30 -1 54 -2 54 -2 -1 -15 -4 -31 -6z"/>
</g>
</svg>
